#!OML:ASF H:\ManfredETheater\Project 1\Capture day 1\Session 1\subject.ASF
:FULLY-SPECIFIED
:DEGREES
334
root 0.875525 15.6137 -44.8359 208.253 1.0864 -187.046
lowerback 24.6371 0.548701 -6.57881
upperback 2.02232 -1.8669 -1.60053
thorax -11.4043 -0.824791 2.65033
lowerneck -17.8571 -5.72183 -7.02182
upperneck -8.29442 -4.74526 7.47993
head 0.786061 -1.35439 3.43565
rclavicle 1.30452e-015 9.38015e-015
rhumerus -55.8788 -3.25256 -79.6368
rradius 55.7594
rwrist -14.8918
rhand -27.4369 -1.0258
rfingers 7.12502
rthumb -0.842047 -31.0039
lclavicle 1.30452e-015 9.38015e-015
lhumerus -20.3359 -11.297 92.4284
lradius 101.75
lwrist -0.311955
lhand -28.5459 -11.6057
lfingers 7.12502
lthumb -1.91312 18.3654
rfemur -85.9107 -16.1846 27.7347
rtibia 86.2958
rfoot -21.5145 -5.69817
rtoes -40.2682
lfemur -14.1603 -1.96227 -24.4611
ltibia 44.2267
lfoot -33.8437 7.32066
ltoes -12.699
335
root 0.879825 15.6387 -45.1075 209.063 1.47677 -186.965
lowerback 24.7908 0.405291 -6.22124
upperback 1.96777 -1.94739 -1.49787
thorax -11.5486 -0.865498 2.59219
lowerneck -17.7753 -5.5066 -6.71014
upperneck -9.02211 -4.4017 7.08936
head 0.475715 -1.15779 3.26479
rclavicle -1.38606e-014 -1.63097e-014
rhumerus -56.046 -3.06793 -79.4941
rradius 56.3494
rwrist -14.9054
rhand -27.4982 -0.73638
rfingers 7.12502
rthumb -0.901293 -30.7142
lclavicle -1.38606e-014 -1.63097e-014
lhumerus -20.9697 -11.4928 92.1888
lradius 100.878
lwrist -0.778829
lhand -28.4518 -11.8402
lfingers 7.12502
lthumb -1.82226 18.1318
rfemur -87.0311 -15.5776 28.4716
rtibia 84.0451
rfoot -21.4154 -4.84853
rtoes -41.2172
lfemur -13.2249 -1.91092 -24.4988
ltibia 42.2397
lfoot -32.3896 6.87352
ltoes -13.9069
336
root 0.886877 15.6671 -45.3938 209.837 1.82049 -186.841
lowerback 24.9232 0.247748 -5.79829
upperback 1.90308 -2.02167 -1.38833
thorax -11.696 -0.905572 2.50213
lowerneck -17.6996 -5.28475 -6.43102
upperneck -9.67291 -4.05768 6.73488
head 0.199236 -0.962769 3.11295
rclavicle 1.82633e-014 2.21769e-014
rhumerus -56.115 -2.95708 -79.349
rradius 56.8061
rwrist -14.8275
rhand -27.6895 -0.539741
rfingers 7.12502
rthumb -1.08599 -30.5167
lclavicle 1.82633e-014 2.21769e-014
lhumerus -21.6911 -11.7134 91.9419
lradius 99.7222
lwrist -1.20679
lhand -28.4131 -12.1977
lfingers 7.12502
lthumb -1.78492 17.7746
rfemur -87.7526 -14.9824 29.0347
rtibia 81.9406
rfoot -21.1278 -3.93071
rtoes -41.8471
lfemur -12.2548 -1.93393 -24.4698
ltibia 40.302
lfoot -30.6797 6.31205
ltoes -15.1263
337
root 0.897726 15.6978 -45.6931 210.578 2.11839 -186.698
lowerback 25.0269 -0.553044 -5.63963
upperback 1.81914 -1.93119 -1.29216
thorax -11.8115 -0.411671 2.39642
lowerneck -17.6518 -5.0678 -6.20069
upperneck -10.2398 -3.72275 6.43367
head -0.0371185 -0.772901 2.98793
rclavicle 5.8393e-015 2.06239e-014
rhumerus -56.0603 -2.92329 -79.2018
rradius 57.1206
rwrist -14.6723
rhand -27.9424 -0.429555
rfingers 7.12502
rthumb -1.33024 -30.4052
lclavicle 5.8393e-015 2.06239e-014
lhumerus -22.4591 -11.9433 91.6923
lradius 98.2795
lwrist -1.61861
lhand -28.3999 -12.5979
lfingers 7.12502
lthumb -1.77219 17.3745
rfemur -88.1018 -14.4026 29.4073
rtibia 80.0693
rfoot -20.5608 -3.10524
rtoes -42.0611
lfemur -11.2984 -2.05909 -24.3952
ltibia 38.476
lfoot -28.6897 5.64878
ltoes -16.2953
338
root 0.912438 15.7299 -46.0047 211.292 2.3795 -186.572
lowerback 25.0803 -0.704138 -5.18102
upperback 1.74432 -2.01515 -1.18139
thorax -11.9337 -0.474783 2.2913
lowerneck -17.6239 -4.86275 -6.01973
upperneck -10.7283 -3.4063 6.17482
head -0.237633 -0.59353 2.88519
rclavicle -4.62174e-015 -2.16178e-015
rhumerus -55.8867 -2.95638 -79.0533
rradius 57.2984
rwrist -14.4847
rhand -28.1989 -0.384297
rfingers 7.12502
rthumb -1.57797 -30.3582
lclavicle -4.62174e-015 -2.16178e-015
lhumerus -23.2592 -12.1688 91.4627
lradius 96.5575
lwrist -1.98833
lhand -28.364 -12.9398
lfingers 7.12502
lthumb -1.73747 17.0328
rfemur -88.1119 -13.8571 29.5695
rtibia 78.5116
rfoot -19.8847 -2.48342
rtoes -41.8042
lfemur -10.404 -2.30528 -24.3167
ltibia 36.8244
lfoot -26.414 4.92162
ltoes -17.3281
339
root 0.93112 15.7616 -46.3274 211.975 2.63005 -186.514
lowerback 25.077 -0.852238 -4.78866
upperback 1.66391 -2.11111 -1.0866
thorax -12.0297 -0.541465 2.20905
lowerneck -17.6693 -4.68354 -5.84961
upperneck -11.1086 -3.13179 5.92646
head -0.385185 -0.437538 2.78469
rclavicle 1.39149e-014 1.76421e-015
rhumerus -55.5897 -3.02839 -78.897
rradius 57.3647
rwrist -14.3562
rhand -28.362 -0.423461
rfingers 7.12502
rthumb -1.73552 -30.3961
lclavicle 1.39149e-014 1.76421e-015
lhumerus -24.0653 -12.3813 91.2635
lradius 94.5612
lwrist -2.2916
lhand -28.3192 -13.2323
lfingers 7.12502
lthumb -1.69419 16.7407
rfemur -87.8101 -13.3594 29.4841
rtibia 77.3179
rfoot -19.2023 -2.12542
rtoes -41.0374
lfemur -9.61087 -2.66733 -24.2992
ltibia 35.404
lfoot -23.8552 4.17863
ltoes -18.1754
340
root 0.954165 15.7924 -46.6593 212.65 2.871 -186.531
lowerback 24.9949 -0.995906 -4.47739
upperback 1.56794 -2.22323 -1.0056
thorax -12.0979 -0.613313 2.1616
lowerneck -17.7591 -4.53041 -5.69349
upperneck -11.4049 -2.89899 5.69345
head -0.49309 -0.305013 2.6892
rclavicle 1.63997e-014 1.2424e-015
rhumerus -55.1674 -3.16104 -78.7396
rradius 57.3107
rwrist -14.2653
rhand -28.4141 -0.504497
rfingers 7.12502
rthumb -1.78587 -30.4768
lclavicle 1.63997e-014 1.2424e-015
lhumerus -24.8578 -12.5633 91.0999
lradius 92.297
lwrist -2.50998
lhand -28.287 -13.5033
lfingers 7.12502
lthumb -1.66311 16.47
rfemur -87.2564 -12.8948 29.1984
rtibia 76.4624
rfoot -18.6625 -2.12363
rtoes -39.9146
lfemur -8.9962 -3.11962 -24.3416
ltibia 34.2714
lfoot -21.0191 3.43675
ltoes -18.7143
